<svg id="Layer_1" xmlns="http://www.w3.org/2000/svg" viewBox="0 0 283.1 59"><style>.Arched_x0020_Green{fill:url(#SVGID_1_);stroke:#fff;stroke-width:.25;stroke-miterlimit:1}.st0{fill:url(#SVGID_2_)}.st1{fill:#a8d0b8}.st2{fill:url(#SVGID_3_)}.st3{fill:url(#SVGID_4_)}.st4{fill:url(#SVGID_5_)}.st5{fill:url(#SVGID_6_)}.st6{fill:url(#SVGID_7_)}.st7{fill:url(#SVGID_8_)}.st8{fill:#e29baa}.st9{fill:#f3ee83}.st10{fill:#999fd0}.st11{fill:#050d0c}</style><linearGradient id="SVGID_1_" gradientUnits="userSpaceOnUse" x1="-386.327" y1="327.127" x2="-385.62" y2="326.42"><stop offset="0" stop-color="#6bae5f"/><stop offset=".983" stop-color="#192a1a"/></linearGradient><linearGradient id="SVGID_2_" gradientUnits="userSpaceOnUse" x1="3.949" y1="58.109" x2="16.797" y2="19.458"><stop offset="0" stop-color="#86c2ab"/><stop offset="1" stop-color="#cfe4d4"/></linearGradient><path class="st0" d="M14.4 8.4c-.2-.6-.3-1.3-.3-1.9 0-.6.1-1.2.3-1.8L.2 50.8c-.9 3.3 1 6.8 4.3 7.9 3.4 1 6.9-.8 8-4.1l8-26.1-6.1-20.1z"/><ellipse transform="rotate(-72.998 6.42 52.548)" class="st1" cx="6.4" cy="52.5" rx="5.4" ry="5.4"/><linearGradient id="SVGID_3_" gradientUnits="userSpaceOnUse" x1="35.561" y1="49.079" x2="44.829" y2="19.309"><stop offset="0" stop-color="#eec3d3"/><stop offset="1" stop-color="#e6a6b9"/></linearGradient><path class="st2" d="M42.6 8.4c-.2-.6-.3-1.3-.3-1.9 0-.6.1-1.2.3-1.8l-7.9 25.9 6.2 20.3c.4 1.3.3 2.5-.1 3.7l8-26.1-6.2-20.1z"/><linearGradient id="SVGID_4_" gradientUnits="userSpaceOnUse" x1="34.426" y1="51.9" x2="22.069" y2="11.458"><stop offset="0" stop-color="#f2d77f"/><stop offset="1" stop-color="#fdf6ac"/></linearGradient><path class="st3" d="M28.4 50.8l6.2-20.3-7.9-25.9c.2.6.3 1.2.3 1.8 0 .7-.1 1.3-.3 1.9l-6.1 20.1 8 26.1c-.5-1.1-.5-2.4-.2-3.7z"/><linearGradient id="SVGID_5_" gradientUnits="userSpaceOnUse" x1="29.141" y1="32.291" x2="35.741" y2="56.586"><stop offset="0" stop-color="#e7aa97"/><stop offset="1" stop-color="#e9b0b6"/></linearGradient><path class="st4" d="M40.8 50.8c.1-.1-.2-.7-.2-.9-.3-.8-.5-1.7-.8-2.5-.8-2.5-1.5-5-2.3-7.5-1-3.2-1.9-6.3-2.9-9.5-1.1 3.7-2.2 7.3-3.4 11-.7 2.3-1.4 4.7-2.2 7-.5 1.8-1.2 3.4-.8 5.3.7 3.4 4.1 5.7 7.5 5 3.8-.6 6.1-4.3 5.1-7.9z"/><linearGradient id="SVGID_6_" gradientUnits="userSpaceOnUse" x1="26.458" y1="26.33" x2="19.155" y2="1.896"><stop offset="0" stop-color="#dee471"/><stop offset="1" stop-color="#d5e2a7"/></linearGradient><path class="st5" d="M26.6 8.4c.7-2.2.1-4.6-1.4-6.3C23.8.5 21.4-.2 19.3.2c-2.1.4-3.8 1.8-4.7 3.7-.6 1.4-.6 3.1-.2 4.6 1.3 4.1 2.5 8.2 3.8 12.3.8 2.5 1.6 5.1 2.3 7.6 1.1-3.7 2.3-7.4 3.4-11.1.6-2.1 1.3-4.2 1.9-6.2.2-.7.4-1.3.6-2 .1-.2.2-.5.2-.7z"/><linearGradient id="SVGID_7_" gradientUnits="userSpaceOnUse" x1="49.537" y1="8.715" x2="64.492" y2="58.214"><stop offset="0" stop-color="#8cacdc"/><stop offset="1" stop-color="#aec3e7"/></linearGradient><path class="st6" d="M69 50.8L54.9 4.6c.2.6.3 1.2.3 1.8 0 .7-.1 1.3-.3 1.9l-6.1 20.1 8 26.1c1.1 3.3 4.6 5.2 8 4.1 3.2-.9 5.1-4.4 4.2-7.8z"/><linearGradient id="SVGID_8_" gradientUnits="userSpaceOnUse" x1="47.008" y1=".442" x2="53.748" y2="24.175"><stop offset="0" stop-color="#7e86c0"/><stop offset="1" stop-color="#8d9ed1"/></linearGradient><path class="st7" d="M54.8 8.4c.7-2.2.1-4.6-1.4-6.3C52 .5 49.6-.2 47.5.2c-2.1.4-3.8 1.8-4.7 3.7-.7 1.5-.7 3.1-.2 4.7 1.3 4.1 2.5 8.2 3.8 12.3.8 2.5 1.6 5.1 2.3 7.6 1.1-3.7 2.3-7.4 3.4-11.1.6-2.1 1.3-4.2 1.9-6.2.2-.7.4-1.3.6-2 .1-.3.2-.6.2-.8z"/><ellipse transform="rotate(-17.001 34.605 52.546)" class="st8" cx="34.6" cy="52.5" rx="5.4" ry="5.4"/><ellipse class="st9" cx="20.5" cy="6.4" rx="5.4" ry="5.4"/><ellipse class="st10" cx="48.7" cy="6.4" rx="5.4" ry="5.4"/><path class="st11" d="M90.6 13h7l7.8 12.5 7.8-12.5h7v29.6h-6.5V23.2l-8.3 12.6h-.2L97 23.3v19.2h-6.4V13zM123.9 31.4c0-6.6 5.2-11.9 12.3-11.9 7 0 12.2 5.2 12.2 11.7v.1c0 6.5-5.2 11.8-12.3 11.8-6.9 0-12.2-5.2-12.2-11.7zm18.2 0c0-3.4-2.4-6.3-6-6.3-3.7 0-5.9 2.8-5.9 6.2v.1c0 3.3 2.4 6.3 6 6.3 3.7-.2 5.9-3 5.9-6.3zM158.7 39.6v3h-6.4V11.7h6.4v11.5c1.6-2.1 3.7-3.7 7.1-3.7 5.3 0 10.3 4.1 10.3 11.7v.1c0 7.6-5 11.7-10.3 11.7-3.5 0-5.6-1.6-7.1-3.4zm10.9-8.3c0-3.8-2.5-6.3-5.5-6.3s-5.5 2.5-5.5 6.3v.1c0 3.8 2.5 6.3 5.5 6.3 3-.2 5.5-2.6 5.5-6.4zM179.9 11.7h6.8v5.7h-6.8v-5.7zm.1 8.2h6.4v22.7H180V19.9zM191.6 11.7h6.4v30.9h-6.4V11.7zM201.8 31.4c0-6.6 4.6-11.9 11.2-11.9 7.6 0 11 5.9 11 12.3 0 .5 0 1.1-.1 1.7h-15.8c.6 2.9 2.7 4.4 5.5 4.4 2.2 0 3.7-.7 5.5-2.3l3.7 3.3c-2.1 2.6-5.2 4.2-9.3 4.2-6.7 0-11.7-4.8-11.7-11.7zm16-2c-.4-2.9-2.1-4.8-4.8-4.8-2.7 0-4.4 1.9-4.9 4.8h9.7zM228 29.9V13h6.5v16.8c0 4.8 2.4 7.3 6.4 7.3s6.4-2.4 6.4-7.1V13h6.5v16.7c0 9-5 13.4-13 13.4-7.9-.1-12.8-4.5-12.8-13.2zM259.3 19.9h6.4v3.3c1.6-2.1 3.7-3.7 7.1-3.7 5.3 0 10.3 4.1 10.3 11.7v.1c0 7.6-5 11.7-10.3 11.7-3.4 0-5.5-1.6-7.1-3.4v9.7h-6.4V19.9zm17.4 11.4c0-3.8-2.5-6.3-5.5-6.3s-5.5 2.5-5.5 6.3v.1c0 3.8 2.5 6.3 5.5 6.3 2.9-.2 5.5-2.6 5.5-6.4z"/></svg>